<?xml version="1.0" encoding="utf-8"?>
<!-- Generator: Adobe Illustrator 16.0.0, SVG Export Plug-In . SVG Version: 6.00 Build 0)  -->
<!DOCTYPE svg PUBLIC "-//W3C//DTD SVG 1.1//EN" "http://www.w3.org/Graphics/SVG/1.1/DTD/svg11.dtd">
<svg version="1.1" id="Layer_1" xmlns="http://www.w3.org/2000/svg" xmlns:xlink="http://www.w3.org/1999/xlink" x="0px" y="0px"
	 width="604px" height="135px" viewBox="0 0 604 135" enable-background="new 0 0 604 135" xml:space="preserve">
<polygon fill="#E57125" points="2.247,38.059 88.064,38.059 88.064,62.761 60.637,62.761 60.637,131.817 29.935,131.817 
	29.935,62.761 2.247,62.761 "/>
<g>
	<path fill="#E57125" d="M167.307,86.313l5.69-12.628c2.328-3.367,5.495-6.203,9.496-8.51c4.001-2.307,8.116-3.461,12.349-3.461
		c11.072,0,18.436,4.159,22.097,12.476c5.928-8.317,13.727-12.476,23.402-12.476c5.971,0,10.872,0.962,14.717,2.889
		c3.843,1.926,6.71,5.037,8.603,9.335c1.896,4.296,2.841,9.98,2.841,17.05v40.828h-26.925v-34.86c0-5.376-0.635-9.038-1.919-10.984
		c-1.278-1.948-3.679-2.92-7.191-2.92c-1.778,0-3.306,0.231-4.59,0.695c-1.284,0.466-2.418,1.713-3.411,3.734
		c-0.995,2.022-1.496,5.18-1.496,9.476v34.86h-27.178V96.319c0-4.762-0.609-8.161-1.84-10.206c-1.226-2.043-3.566-3.062-7.016-3.062
		c-6.41,0-9.623,4.634-9.623,13.905L167.307,86.313z"/>
	<path fill="#CF4E22" d="M303.548,63.045h10.163v-21.21h26.632v21.21h12.861v15.75h-12.861v25.349c0,2.647,0.358,4.509,1.067,5.586
		c0.709,1.081,1.854,1.742,3.446,1.983c1.585,0.244,4.324,0.364,8.225,0.364v19.228c0.059,0-1.979,0.086-6.127,0.256
		c-4.139,0.171-7.13,0.257-8.942,0.257c-5.27,0-9.451-0.303-12.549-0.904c-3.099-0.608-5.554-1.718-7.355-3.354
		c-1.815-1.627-3.087-3.952-3.827-6.975c-0.74-3.03-1.106-7.078-1.106-12.155V78.795h-9.626V63.045z"/>
	<path fill="#CF4E22" d="M359.312,63.555h24.574V77.46h0.258c3.553-10.497,10.496-15.745,20.827-15.745
		c0.503,0,1.217,0.041,2.129,0.126c0.91,0.085,1.403,0.126,1.488,0.126v27.211c-2.262-0.529-4.294-0.794-6.092-0.794
		c-5.443,0-9.51,1.534-12.208,4.604c-2.699,3.068-4.052,8.213-4.052,15.428v23.401h-26.925V63.555z"/>
	<path fill="#CF4E22" d="M517.752,75.81c-2.819-5.334-6.509-9.369-11.064-12.096c-4.551-2.731-9.29-4.097-14.227-4.097
		c-4.23,0-7.864,0.676-10.903,2.028c-3.032,1.354-7.728,4.299-11.687,9.661l-0.047,48.814h0.543
		c4.02,7.799,10.869,11.696,20.54,11.696c5.483-0.109,10.535-1.227,15.147-3.363c4.615-2.141,8.426-5.939,11.426-11.401
		c3.008-5.463,4.512-12.856,4.512-22.192C521.992,87.492,520.583,81.141,517.752,75.81 M492.26,107.424
		c-1.874,3.052-4.748,4.644-8.618,4.771c-4.066,0-6.994-1.724-8.78-5.171c-1.788-3.443-2.686-7.151-2.686-11.116
		c0-4.18,0.942-7.809,2.826-10.882c1.885-3.075,4.848-4.612,8.887-4.612c3.837,0.126,6.657,1.74,8.462,4.835
		c1.813,3.097,2.719,6.733,2.719,10.913C495.069,100.611,494.13,104.369,492.26,107.424"/>
	<path fill="#CF4E22" d="M573.98,109.177h25.88c-1.403,6.162-5.202,11.475-11.403,15.942c-6.198,4.466-14.922,6.697-26.162,6.697
		c-7.767,0-14.596-1.479-20.493-4.447c-5.896-2.96-10.435-7.145-13.618-12.558c-3.19-5.408-4.78-11.622-4.78-18.649
		c0-4.636,0.819-9.146,2.463-13.527c1.639-4.38,4.082-8.308,7.333-11.778c3.248-3.473,7.305-6.214,12.171-8.223
		c4.873-2.012,10.419-3.017,16.644-3.017c7.252,0,13.494,1.254,18.699,3.762c5.204,2.51,9.371,5.821,12.493,9.938
		c3.121,4.115,5.403,8.619,6.84,13.508c1.438,4.89,2.163,9.864,2.163,14.923h-51.88c0.128,4.212,1.526,7.483,4.206,9.812
		c2.676,2.327,5.78,3.567,9.316,3.714C568.657,115.273,572.033,113.243,573.98,109.177 M550.329,87.842h24.955
		c-0.254-3.448-1.589-6.265-4-8.446c-2.417-2.18-5.156-3.268-8.229-3.268c-3.978,0-7.093,1.032-9.35,3.095
		C551.455,81.286,550.329,84.159,550.329,87.842"/>
</g>
<g>
	<path fill="#CF4E22" d="M427.412,58.044c-5.672,0-10.313-4.641-10.313-10.314v-3.957c0-5.673,4.642-10.314,10.313-10.314h1.195
		c5.672,0,10.313,4.641,10.313,10.314v3.957c0,5.673-4.642,10.314-10.313,10.314H427.412z"/>
	<path fill="#CF4E22" d="M424.281,131.817c-4.932,0-8.967-4.035-8.967-8.967V73.249c0-4.931,4.035-8.966,8.967-8.966h7.021
		c4.931,0,8.966,4.035,8.966,8.966v49.602c0,4.932-4.035,8.967-8.966,8.967H424.281z"/>
	<path fill="#E57125" d="M284.365,52.666c-5.956,0-10.831-4.874-10.831-10.83V37.68c0-5.957,4.875-10.831,10.831-10.831h1.258
		c5.957,0,10.831,4.874,10.831,10.83v4.157c0,5.956-4.874,10.83-10.831,10.83H284.365z"/>
	<path fill="#E57125" d="M281.083,131.817c-5.179,0-9.416-4.237-9.416-9.416V70.314c0-5.179,4.237-9.416,9.416-9.417h7.366
		c5.178-0.001,9.416,4.236,9.416,9.415v52.089c0,5.179-4.238,9.416-9.416,9.416H281.083z"/>
	<path fill="#E57125" d="M162.903,78.883c-5.138,0-9.343-4.204-9.343-9.343v-2.153c0-5.138,4.205-9.342,9.343-9.342h2.437
		c5.139,0,9.343,4.204,9.343,9.342v2.153c0,5.139-4.204,9.343-9.343,9.343H162.903z"/>
	<path fill="#E57125" d="M160.07,131.817c-4.118,0-7.487-3.369-7.487-7.487l0.003-35.939c0-4.118,3.369-7.487,7.487-7.487h8.097
		c4.118,0,7.487,3.369,7.487,7.487v35.939c0,4.118-3.369,7.487-7.487,7.487H160.07z"/>
	<path fill="#CF4E22" d="M457.953,25.614c-5.541,0-10.075-4.534-10.075-10.075V12.07c0-5.542,4.534-10.075,10.075-10.075h1.521
		c5.543,0,10.076,4.533,10.076,10.075v3.469c0,5.541-4.533,10.075-10.076,10.075H457.953z"/>
	<path fill="#CF4E22" d="M457.258,131.817c-5.88,0-10.69-4.812-10.69-10.69V43.936c0-5.88,4.811-10.69,10.69-10.69h2.914
		c5.88,0,10.689,4.81,10.689,10.69v77.191c0,5.879-4.81,10.69-10.689,10.69H457.258z"/>
	<path fill="#E57125" d="M109.771,59.617c4.717,0,9.337,0.599,13.857,1.795c4.516,1.194,8.655,3.131,12.414,5.808
		c3.76,2.678,6.784,6.309,9.08,10.891c2.295,4.584,3.476,10.082,3.54,16.493c0,8.614-1.807,15.696-5.431,21.24
		c-3.62,5.549-8.331,9.569-14.142,12.066c-5.812,2.497-12.082,3.795-18.813,3.906c-5.204,0-10.161-0.709-14.862-2.13
		c-4.693-1.418-8.867-3.585-12.506-6.507c-3.64-2.923-6.516-6.646-8.622-11.175c-2.106-4.529-3.156-9.812-3.156-15.844
		c0-8.193,1.751-15.038,5.253-20.545c3.504-5.503,8.175-9.544,14.018-12.127C96.243,60.907,102.698,59.617,109.771,59.617
		 M110.533,77.683c-4.447,0.105-7.595,1.885-9.448,5.339c-1.853,3.454-2.778,7.393-2.778,11.821c0,5.277,0.87,9.698,2.602,13.267
		c1.734,3.57,4.69,5.353,8.862,5.353c7.978,0,11.968-6.206,11.968-18.619c0-4.006-0.864-7.865-2.589-11.583
		C117.427,79.542,114.553,77.683,110.533,77.683"/>
</g>
</svg>
